<?xml version="1.0" encoding="UTF-8"?><svg id="Layer_2" xmlns="http://www.w3.org/2000/svg" xmlns:xlink="http://www.w3.org/1999/xlink" viewBox="0 0 1048.72 374.59"><defs><style>.cls-1{fill:#297e8a;}.cls-2{fill:#3fabbd;}.cls-3{fill:#0f7482;}.cls-4{fill:url(#linear-gradient);}</style><linearGradient id="linear-gradient" x1="0" y1="187.23" x2="297.05" y2="187.23" gradientUnits="userSpaceOnUse"><stop offset=".05" stop-color="#297e8a"/><stop offset=".08" stop-color="#2a808d"/><stop offset=".25" stop-color="#3393a2"/><stop offset=".44" stop-color="#3aa0b1"/><stop offset=".66" stop-color="#3da8ba"/><stop offset="1" stop-color="#3fabbd"/></linearGradient></defs><g id="Layer_1-2"><g><path class="cls-1" d="M297.03,90.43S149.62,.45,148.91,0C99.28,30.14,49.65,60.29,.01,90.43c11.96,7.15,23.92,14.29,35.88,21.44,4.7-2.9,113.02-68.58,113.02-68.58,0,0,112.76,68.5,112.87,68.58,0,0,34.51-20.99,35.25-21.44Z"/><path class="cls-1" d="M297.03,284.16s-147.41,89.98-148.12,90.43C99.28,344.45,49.65,314.3,.01,284.16c11.96-7.15,23.92-14.29,35.88-21.44,4.7,2.9,113.02,68.58,113.02,68.58,0,0,112.76-68.5,112.87-68.58,0,0,34.51,20.99,35.25,21.44Z"/><path class="cls-4" d="M297.05,103.89v9.61c-.02,24.56,0,49.11,0,73.65v83.42l-35.27-21.39v-100.67c-.56,.34-112.87,68.5-112.87,68.5-4.91-2.79-96.14-58.04-113.02-68.5v100.67c-2.68,1.51-35.24,20.99-35.88,21.39C0,242.76,0,107.09,.01,103.89c.87,.54,2.61,1.63,2.61,1.63,0,0,132.33,80.05,146.29,88.35l148.14-89.98Z"/></g><g><path class="cls-3" d="M1008.35,103.89v-23.44h-8.42v-3.24h20.49v3.24h-8.42v23.44h-3.64Z"/><path class="cls-3" d="M1026.98,81.15v22.74h-3.33v-26.69h5.18l6.61,20.42c.19,.58,.33,1.03,.43,1.35,.09,.32,.16,.6,.21,.84,.1-.45,.19-.85,.29-1.2s.2-.68,.31-1l6.85-20.42h5.2v26.69h-3.51v-22.74c-.08,.39-.18,.78-.29,1.17-.11,.39-.22,.78-.34,1.17l-6.87,20.4h-3.42l-6.7-20.4c-.12-.34-.23-.7-.33-1.09-.1-.39-.19-.8-.27-1.25Z"/></g><g><path class="cls-1" d="M388.4,245.03c0,10.46-7.25,18.96-16.41,19.39h-8.39c-9.54,0-17.17-8.72-17.17-19.39v-116.8c0-10.68,7.63-19.39,17.17-19.39h8.39c9.16,.22,16.41,8.93,16.41,19.39v23.32c0,5.01-1.91,7.41-3.62,8.28l-9.92,5.23v-34.21c0-4.58-3.24-8.28-7.44-8.28s-7.25,3.7-7.25,8.28v111.35c0,4.79,3.24,8.5,7.25,8.5s7.44-3.7,7.44-8.5v-20.48c0-5.01,1.91-7.41,3.62-8.5,1.14-.65,6.49-3.27,9.92-5.01v36.83Z"/><path class="cls-1" d="M471.95,108.84c9.16,.44,16.6,8.93,16.6,19.39v117.01c-.19,10.46-7.44,18.74-16.6,19.18h-10.49c-9.35,0-16.98-8.72-17.17-19.18v-117.01c0-10.68,7.63-19.39,17.17-19.39h10.49Zm-4.58,141.86c4.01,0,7.25-3.7,7.25-8.5v-111.13c0-4.79-3.24-8.5-7.25-8.5h-2.1c-4.01,.22-7.25,3.92-7.25,8.5v111.13c0,4.58,3.24,8.28,7.25,8.5h2.1Z"/><path class="cls-1" d="M570.57,110.36c9.35,0,16.79,8.5,16.98,19.17v114.18c-.19,10.68-7.63,19.18-16.98,19.18h-26.52V110.36h26.52Zm3.43,23.53c0-5.67-3.43-7.84-7.25-7.84h-8.97v121.37h8.97c3.81,0,7.25-2.18,7.25-8.06v-105.47Z"/><path class="cls-1" d="M692.07,247.43c-1.53,3.92-3.81,10.02-4.39,11.33-.95,1.96-3.05,4.14-7.44,4.14h-30.52V114.72c.19-2.4,1.91-4.36,4.2-4.36h35.67l-4.58,11.33c-.76,1.96-2.86,4.36-7.25,4.36h-11.06c-1.91,0-3.24,1.53-3.24,3.7v45.32h20.6c-1.53,3.92-3.81,10.24-4.39,11.55-.95,1.96-2.86,4.14-7.25,4.14h-5.72c-1.72,0-3.24,1.74-3.24,3.7v52.95h28.61Z"/><path class="cls-2" d="M796.41,262.9h-13.54v-78.66l-10.3,52.3h-4.2c-8.01,0-9.54-9.15-10.3-12.42l-8.01-39.88v78.66h-13.54V110.36h8.39c5.34,0,6.1,5.67,6.1,5.67l15.83,87.6,15.07-87.82c.19-.65,1.14-5.45,6.1-5.45h8.39v152.53Z"/><path class="cls-2" d="M891.6,262.9h-15.07l-12.02-105.03-12.02,105.03h-15.07l20.22-152.53h7.44c5.72,0,6.68,4.14,7.25,8.28l19.27,144.25Z"/><path class="cls-2" d="M946.92,262.9h-15.83l21.17-80.84-17.93-71.69h10.68c.57,0,4.01,0,5.34,5.23l9.73,40.53,9.16-40.53c1.34-5.23,4.77-5.23,5.34-5.23h10.68l-17.17,71.91,19.84,80.62h-14.88l-12.4-55.35-13.73,55.35Z"/></g></g></svg>