<svg width="689" height="161" viewBox="0 0 689 161" fill="none" xmlns="http://www.w3.org/2000/svg">
<path fill-rule="evenodd" clip-rule="evenodd" d="M285.554 87.5608V87.5594L285.553 87.558L285.547 87.5537L285.554 87.5608Z" fill="#E9E6F7"/>
<path fill-rule="evenodd" clip-rule="evenodd" d="M82.3949 111.468C95.0607 98.8377 99.3402 80.9794 95.2357 64.8075C93.8849 59.2203 91.5381 53.8243 88.1781 48.9095C91.0672 48.3778 94.0402 48.0903 97.0833 48.0953L112.967 48.1249L119.035 62.8522C129.235 87.6091 117.449 115.953 92.7127 126.162L49.0493 144.177L82.3949 111.468Z" fill="#0AAB6E"/>
<path fill-rule="evenodd" clip-rule="evenodd" d="M82.2951 105.293C81.4199 106.34 80.498 107.359 79.5132 108.342L46.6285 141.133L45.9765 141.783L46.1454 95.8269C46.1885 73.0007 62.6185 54.0457 84.2708 50.0635C95.6967 66.7745 95.0298 89.2602 82.2951 105.293Z" fill="#FFAA00"/>
<path fill-rule="evenodd" clip-rule="evenodd" d="M67.9142 32.6016L79.6358 44.378C80.0672 44.811 80.4801 45.2563 80.8906 45.7041C82.1108 47.1068 83.2435 48.56 84.2715 50.0639C62.6179 54.0461 46.1891 73.0011 46.146 95.8273L45.9759 141.782L28.5179 99.305C18.7092 75.4968 30.0414 48.2319 53.8347 38.4133L67.9142 32.6016Z" fill="#FFC800"/>
<path fill-rule="evenodd" clip-rule="evenodd" d="M67.9142 32.6026L53.8347 38.4143C30.0414 48.2329 18.7093 75.4978 28.518 99.306L45.9759 141.783L45.9685 141.792L13.5831 109.255C-4.57622 91.0121 -4.52075 61.4823 13.71 43.302L46.2594 10.8472L67.9142 32.6026Z" fill="#FFE600"/>
<path fill-rule="evenodd" clip-rule="evenodd" d="M88.8076 49.8577C87.0364 47.4274 84.6181 44.3334 82.4932 42.0252L71.7083 31.1901L100.771 18.5205L113.608 49.6775L97.3541 49.6738C94.311 49.6677 92.4202 49.8577 88.8076 49.8577Z" fill="#22D167"/>
<path fill-rule="evenodd" clip-rule="evenodd" d="M95.2785 129.246C101.737 126.688 107.367 122.914 111.998 118.295C118.494 111.817 123.025 103.678 125.175 94.8721C125.267 94.5242 125.342 94.1714 125.424 93.821L125.471 93.6236L125.476 93.5928C127.653 84.1332 127.325 73.942 123.839 64.3245L119.142 52.9218L118.011 50.0635H148.979L148.889 97.5602C148.839 124.34 126.961 146.786 100.204 146.736L51.8591 146.92L95.2785 129.246Z" fill="#4D96E5"/>
<path fill-rule="evenodd" clip-rule="evenodd" d="M602.551 66.1323H594.476V58.0458C594.476 53.5306 598.134 49.8691 602.647 49.8691H610.726V57.9495C610.726 62.4696 607.066 66.1323 602.551 66.1323Z" fill="#E9E6F7"/>
<path fill-rule="evenodd" clip-rule="evenodd" d="M166.426 60.6056H167.157H187.438L187.529 60.6956L187.552 145.699L187.597 146.931H193.049C196.125 146.931 198.618 144.436 198.618 141.358L198.642 60.6956L198.733 60.6056H214.31C217.311 60.6056 219.744 58.1691 219.744 55.1652V49.9604L219.653 49.8691H171.763C168.815 49.8691 166.426 52.26 166.426 55.2096V60.6056Z" fill="#E9E6F7"/>
<path fill-rule="evenodd" clip-rule="evenodd" d="M281.843 103.445H231.615C233.426 97.5728 235.992 93.1736 239.288 90.2339C244.102 85.9297 249.8 83.7917 256.516 83.7856C260.579 83.7868 264.437 84.643 268.125 86.3577C271.817 88.0799 274.756 90.3276 276.978 93.107C279.044 95.6928 280.672 99.142 281.843 103.445ZM293.438 111.961C293.353 102.264 290.731 94.0964 285.553 87.5593C281.929 82.9541 277.673 79.4764 272.8 77.1621C267.927 74.8453 262.446 73.6943 256.387 73.6943C250.5 73.6943 245.173 74.8194 240.44 77.0819C235.706 79.3444 231.573 82.7407 228.057 87.2398C222.508 94.3123 219.721 102.416 219.723 111.453C219.72 121.066 223.018 129.733 229.56 137.335C232.849 141.161 236.792 144.044 241.358 145.96C245.926 147.876 251.114 148.825 256.903 148.825C262.128 148.825 266.835 148.032 271.01 146.428C275.175 144.828 278.928 142.489 282.256 139.424C285.596 136.348 288.521 132.323 291.042 127.369L291.369 126.725L286.753 124.297C284.362 123.04 281.415 123.747 279.847 125.949C278.082 128.428 275.88 131.371 274.653 132.436C272.366 134.422 269.58 136.026 266.282 137.241C262.987 138.451 259.609 139.056 256.131 139.056C248.915 139.047 242.943 136.541 238.039 131.474C233.305 126.562 230.792 120.347 230.48 112.7H293.444L293.438 111.961Z" fill="#E9E6F7"/>
<path fill-rule="evenodd" clip-rule="evenodd" d="M367.541 75.1839H356.517C353.658 75.1839 350.897 76.2177 348.741 78.0965L320.635 102.583V49.8682H316.035C312.794 49.8682 310.166 52.4995 310.166 55.744V146.932H315.778C318.46 146.932 320.635 144.754 320.635 142.07V116.067L352.173 144.287C353.915 145.847 356.171 146.708 358.509 146.708H369.743L328.214 109.346L367.541 75.1839Z" fill="#E9E6F7"/>
<path fill-rule="evenodd" clip-rule="evenodd" d="M431.805 77.8073C427.631 75.0649 422.831 73.6931 417.474 73.6943C412.215 73.6943 407.323 74.9156 402.843 77.3583C398.89 79.5098 395.262 82.6235 391.955 86.6699V75.2191H387.139C384.018 75.2191 381.487 77.753 381.487 80.8766V147.022H387.104C389.784 147.022 391.955 144.85 391.955 142.168V120.599C391.955 115.994 392.063 112.113 392.276 108.959C392.488 105.809 392.807 103.383 393.22 101.717C394.559 96.5378 397.304 92.2225 401.507 88.7041C405.703 85.1981 410.392 83.4685 415.677 83.4636C420.324 83.4673 424.001 84.601 426.806 86.8167C429.609 89.0348 431.532 92.3459 432.551 96.8672L432.553 96.8746L432.555 96.882C432.87 98.1551 433.122 100.152 433.287 102.821C433.452 105.493 433.536 108.845 433.536 112.87V147.022H439.016C441.772 147.022 444.005 144.786 444.005 142.029V110.23C444.003 100.648 443.047 93.5623 441.051 88.8843C439.071 84.2544 435.974 80.5423 431.805 77.8073Z" fill="#E9E6F7"/>
<path fill-rule="evenodd" clip-rule="evenodd" d="M495.678 83.9793C502.942 83.9879 509.136 86.6538 514.428 92.0671C519.703 97.484 522.316 103.958 522.322 111.648C522.321 116.594 521.128 121.181 518.737 125.456C516.339 129.729 513.127 133.002 509.069 135.32C505 137.639 500.554 138.798 495.678 138.799C490.801 138.798 486.354 137.639 482.288 135.32C478.227 133.002 475.015 129.729 472.619 125.456C470.227 121.181 469.035 116.594 469.034 111.648C469.04 103.957 471.642 97.4828 476.896 92.0659C482.166 86.6538 488.37 83.9879 495.678 83.9793ZM523.064 85.6533C515.854 77.6975 506.671 73.6857 495.71 73.6944C484.706 73.6845 475.5 77.7185 468.292 85.72C461.731 92.9664 458.429 101.59 458.435 111.454C458.429 121.413 461.921 130.179 468.846 137.615C475.783 145.082 484.804 148.835 495.71 148.825C506.574 148.835 515.573 145.082 522.511 137.615C529.434 130.179 532.927 121.413 532.921 111.454C532.927 101.548 529.625 92.8998 523.064 85.6533Z" fill="#E9E6F7"/>
<path fill-rule="evenodd" clip-rule="evenodd" d="M576.507 73.6943C573.053 73.6931 569.728 74.7454 566.584 76.8081C563.931 78.5475 561.419 81.0222 559.029 84.2001V75.2191H554.168C550.963 75.2191 548.368 77.8184 548.368 81.0247V147.022H553.698C556.643 147.022 559.029 144.634 559.029 141.687V122.594C559.029 116.532 559.17 111.491 559.446 107.48C559.722 103.471 560.142 100.484 560.676 98.5783C562.108 93.4685 564.181 89.7725 566.825 87.4347C569.522 85.0513 572.23 83.9176 575.027 83.9151C576.159 83.9127 577.665 84.2864 579.498 85.0797L580.076 85.3301L581.446 83.1157C583.838 79.2445 581.389 74.0607 576.856 73.7091C576.734 73.6993 576.617 73.6943 576.507 73.6943Z" fill="#E9E6F7"/>
<path fill-rule="evenodd" clip-rule="evenodd" d="M597.367 147.024H602.521C605.456 147.024 607.836 144.641 607.836 141.704V75.2202H602.869C599.83 75.2202 597.367 77.685 597.367 80.726V147.024Z" fill="#E9E6F7"/>
<path fill-rule="evenodd" clip-rule="evenodd" d="M660.912 109.324L685.567 75.2183H679.118C675.237 75.2183 671.594 77.0885 669.328 80.2404L654.581 100.612L639.242 79.5804C637.253 76.8405 634.074 75.2183 630.688 75.2183H623.462L624.302 76.3791L648.269 109.393L621.223 147.023H628.811C631.927 147.023 634.851 145.524 636.674 142.994L654.584 118.113L672.348 142.647C674.338 145.394 677.523 147.023 680.915 147.023H688.294L660.912 109.324Z" fill="#E9E6F7"/>
</svg>
